<svg width="40" height="40" viewBox="0 0 40 40" fill="none" xmlns="http://www.w3.org/2000/svg">
<path d="M0 3.33333C0 1.49238 1.49238 0 3.33333 0H36.6667C38.5076 0 40 1.49238 40 3.33333V36.6667C40 38.5076 38.5076 40 36.6667 40H3.33333C1.49238 40 0 38.5076 0 36.6667V3.33333Z" fill="#54BD7E"/>
<path fill-rule="evenodd" clip-rule="evenodd" d="M21.202 13.2213C26.0252 12.8579 28.9407 10.5611 29.8492 7.5C23.484 10.4328 15.5415 6.84493 14.0383 13.3253L13.2677 16.7799C14.6082 14.7 16.379 13.5847 21.202 13.2213ZM18.6941 13.8096C16.3236 14.1511 14.4221 15.2507 13.355 17.1822C13.0114 17.8037 12.8907 18.4716 12.8907 18.4716L12.3453 20.9169C13.0286 19.6984 14.2506 18.1411 17.4532 17.4001C17.5252 17.0123 17.9626 14.7897 18.6941 13.8096ZM11.8475 23.1481L11.0144 26.8831C13.2218 22.6802 17.9721 21.8645 18.5587 21.7419C22.6953 20.8769 24.6869 18.8229 25.4788 16.1538C21.8694 18.1949 13.4445 15.632 11.8475 23.1481ZM10.6132 28.6827L10 31.4316C14.892 31.1562 15.4315 26.455 16.2297 22.7203C14.7078 23.2515 11.3536 25.3334 10.6132 28.6827Z" fill="white"/>
</svg>
